{"title":"Whale.Wars.S04.EP5.Tracking.The.Enemy.Xvid.IARG","uid":6526798,"size":366092475,"categoryP":"video","categoryS":"tv_shows","magnet":"?xt=urn:btih:11e991fc5a0b92febdf04efe2a56e1cb3bcabe52&amp;dn=Whale.Wars.S04.EP5.Tracking.The.Enemy.Xvid.IARG&amp;tr=udp%3A%2F%2Ftracker.openbittorrent.com%3A80&amp;tr=udp%3A%2F%2Fopen.demonii.com%3A1337&amp;tr=udp%3A%2F%2Ftracker.coppersurfer.tk%3A6969&amp;tr=udp%3A%2F%2Fexodus.desync.com%3A6969","seeders":1,"leechers":1,"uploader":"scoobey","files":-1,"time":1310195195,"description":" &lt;a href=&quot;http://www.imdb.com/video/imdb/vi945069337/&quot; rel=&quot;nofollow&quot; target=&quot;_NEW&quot;&gt;http://www.imdb.com/video/imdb/vi945069337/&lt;/a&gt;\n\n\nWhale.Wars.S04.EP5.Tracking.The.Enemy.Xvid.IARG.\n\n\nFormat                           : AVI\nFormat/Info                      : Audio Video Interleave\nFile size                        : 349 MiB\nDuration                         : 43mn 7s\nOverall bit rate                 : 1 132 Kbps\nWriting application              : VirtualDubMod 1.5.4.1 (build 2178/release)\nWriting library                  : VirtualDubMod build 2178/release\n\nVideo\nID                               : 0\nFormat                           : MPEG-4 Visual\nFormat profile                   : Advanced Simple@L5\nFormat settings, BVOP            : 1\nFormat settings, QPel            : No\nFormat settings, GMC             : No warppoints\nFormat settings, Matrix          : Custom\nCodec ID                         : XVID\nCodec ID/Hint                    : XviD\nDuration                         : 43mn 7s\nBit rate                         : 1 010 Kbps\nWidth                            : 624 pixels\nHeight                           : 352 pixels\nDisplay aspect ratio             : 16:9\nFrame rate                       : 29.970 fps\nColor space                      : YUV\nChroma subsampling               : 4:2:0\nBit depth                        : 8 bits\nScan type                        : Progressive\nCompression mode                 : Lossy\nBits/(Pixel*Frame)               : 0.153\nStream size                      : 311 MiB (89%)\nWriting library                  : XviD 64\n\nAudio\nID                               : 1\nFormat                           : MPEG Audio\nFormat version                   : Version 1\nFormat profile                   : Layer 3\nMode                             : Joint stereo\nCodec ID                         : 55\nCodec ID/Hint                    : MP3\nDuration                         : 43mn 6s\nBit rate mode                    : Variable\nBit rate                         : 108 Kbps\nNominal bit rate                 : 128 Kbps\nChannel(s)                       : 2 channels\nSampling rate                    : 48.0 KHz\nCompression mode                 : Lossy\nStream size                      : 33.4 MiB (10%)\nAlignment                        : Aligned on interleaves\nInterleave, duration             : 24 ms (0.72 video frame)\nInterleave, preload duration     : 552 ms\nWriting library                  : LAME3.98r\nEncoding settings                : -m j -V 4 -q 2 -lowpass 17 --abr 128\n\n\n\n\n\n","torrent":{"xt":"urn:btih:11e991fc5a0b92febdf04efe2a56e1cb3bcabe52","amp;dn":"Whale.Wars.S04.EP5.Tracking.The.Enemy.Xvid.IARG","amp;tr":["udp%3A%2F%2Ftracker.openbittorrent.com%3A80","udp%3A%2F%2Fopen.demonii.com%3A1337","udp%3A%2F%2Ftracker.coppersurfer.tk%3A6969","udp%3A%2F%2Fexodus.desync.com%3A6969"],"infoHash":"11e991fc5a0b92febdf04efe2a56e1cb3bcabe52","infoHashBuffer":{"type":"Buffer","data":[17,233,145,252,90,11,146,254,189,240,78,254,42,86,225,203,59,202,190,82]},"announce":[],"urlList":[]}}